<svg width="49" height="48" viewBox="0 0 49 48" fill="none" xmlns="http://www.w3.org/2000/svg">
<path d="M37.4399 33.66L38.2199 39.98C38.4199 41.64 36.6399 42.7999 35.2199 41.9399L26.8399 36.96C25.9199 36.96 25.02 36.9 24.14 36.78C25.62 35.04 26.4999 32.84 26.4999 30.46C26.4999 24.78 21.5799 20.1801 15.4999 20.1801C13.1799 20.1801 11.0399 20.84 9.25995 22C9.19995 21.5 9.17993 21 9.17993 20.48C9.17993 11.38 17.0799 4 26.8399 4C36.5999 4 44.4999 11.38 44.4999 20.48C44.4999 25.88 41.7199 30.66 37.4399 33.66Z" stroke="#728197" stroke-width="1.5" stroke-linecap="round" stroke-linejoin="round"/>
<path d="M26.5 30.46C26.5 32.84 25.62 35.04 24.14 36.78C22.16 39.18 19.02 40.72 15.5 40.72L10.28 43.8199C9.4 44.3599 8.27999 43.62 8.39999 42.6L8.89999 38.66C6.21999 36.8 4.5 33.82 4.5 30.46C4.5 26.94 6.38001 23.84 9.26001 22C11.04 20.84 13.18 20.1801 15.5 20.1801C21.58 20.1801 26.5 24.78 26.5 30.46Z" stroke="#728197" stroke-width="1.5" stroke-linecap="round" stroke-linejoin="round"/>
</svg>
